<svg version="1.0" xmlns="http://www.w3.org/2000/svg" width="300.000000pt" height="318.000000pt" viewBox="0 0 300.000000 318.000000" preserveAspectRatio="xMidYMid meet">
  <g transform="translate(0.000000,318.000000) scale(0.100000,-0.100000)" fill="#f00a0a" stroke="#ffffff" stroke-width="300">
    <path d="M1416 3097 c-14 -10 -51 -165 -162 -668 -79 -359 -160 -706 -180 -769 -88 -279 -231 -530 -425 -747 -35 -40 -170 -172 -299 -293 -152 -143 -244 -238 -261 -268 -30 -53 -46 -167 -23 -158 42 16 1152 198 1255 206 78 6 170 6 248 0 121 -10 221 -25 935 -148 l338 -58 -6 55 c-9 77 -38 131 -99 187 -166 152 -461 441 -525 514 -104 118 -209 281 -286 440 -110 229 -109 226 -347 1310 -46 213 -88 383 -97 393 -18 20 -42 22 -66 4z m96 -223 c22 -99 42 -190 44 -204 3 -14 11 -52 19 -85 8 -33 51 -229 96 -435 123 -570 190 -752 382 -1040 101 -152 169 -225 477 -519 124 -118 235 -230 247 -250 13 -20 23 -52 23 -72 l0 -36 -77 13 c-43 7 -274 46 -513 88 -598 102 -575 99 -760 100 -190 0 -172 3 -845 -113 l-510 -88 -3 33 c-2 18 3 46 12 61 14 28 120 135 326 328 298 280 437 459 567 732 104 218 112 249 339 1282 46 211 89 390 96 398 23 28 39 -13 80 -193z"/>
  </g>
</svg>